<svg xmlns="http://www.w3.org/2000/svg" width="400" height="400" viewBox="0 0 400 400"><g fill-rule="evenodd"><path d="M82.5.292c-1.815.077-3.3.313-3.3.524 0 .211-.99.384-2.2.384-1.21 0-2.2.18-2.2.4 0 .22-.72.4-1.6.4-.88 0-1.6.18-1.6.4 0 .22-.72.4-1.6.4-.909 0-1.6.192-1.6.445 0 .271-.486.374-1.237.264-.803-.118-1.309.007-1.443.355-.113.295-.626.536-1.139.536-.514 0-1.056.197-1.204.438-.149.24-.7.355-1.224.255-.627-.12-.953.004-.953.362 0 .315-.423.545-1 .545-.55 0-1 .18-1 .4 0 .22-.45.4-1 .4s-1 .18-1 .4c0 .22-.45.4-1 .4s-1 .18-1 .4c0 .22-.36.4-.8.4-.44 0-.8.18-.8.4 0 .22-.36.4-.8.4-.44 0-.8.18-.8.4 0 .22-.36.4-.8.4-.44 0-.8.186-.8.414 0 .282-.241.285-.754.011-.607-.325-.743-.269-.7.286.034.428-.211.668-.646.633-.385-.03-.705.15-.71.4-.01.436-2.637 1.856-3.433 1.856-.209 0-.64.36-.957.8-.317.44-.857.8-1.2.8-.343 0-.883.36-1.2.8-.317.44-.857.8-1.2.8-.343 0-.883.36-1.2.8-.317.44-.821.8-1.12.8-.298 0-1.234.72-2.08 1.6-.846.88-1.731 1.6-1.969 1.6a.438.438 0 0 0-.431.443c0 .243-.279.335-.621.204-.341-.131-.517-.07-.39.135.301.488-8.919 9.708-9.407 9.407-.205-.127-.266.049-.135.39.131.342.039.621-.204.621a.443.443 0 0 0-.443.44c0 .241-.54.943-1.2 1.56-.66.617-1.2 1.329-1.2 1.584 0 .255-.18.352-.4.216-.22-.136-.4.084-.4.488 0 .405-.36.995-.8 1.312-.44.317-.8.857-.8 1.2 0 .343-.36.883-.8 1.2-.44.317-.8.857-.8 1.2 0 .343-.36.883-.8 1.2-.44.317-.8.831-.8 1.141 0 .311-.377.892-.837 1.291-.46.399-.719.916-.574 1.15.144.233-.023.533-.371.666-.348.134-.584.538-.525.898.07.425-.153.632-.636.591-.542-.045-.623.057-.3.38.614.614.555 1.212-.095.962-.385-.147-.485.067-.353.758.106.552-.006.963-.262.963-.246 0-.447.36-.447.8 0 .44-.18.8-.4.8-.22 0-.4.36-.4.8 0 .44-.18.8-.4.8-.22 0-.4.45-.4 1s-.18 1-.4 1c-.22 0-.4.45-.4 1s-.18 1-.4 1c-.22 0-.4.45-.4 1 0 .577-.23 1-.545 1-.365 0-.481.329-.353 1 .112.584.005 1-.255 1-.246 0-.447.54-.447 1.2 0 .66-.18 1.2-.4 1.2-.22 0-.4.63-.4 1.4 0 .77-.18 1.4-.4 1.4-.22 0-.4.63-.4 1.4 0 .77-.18 1.4-.4 1.4-.22 0-.4.81-.4 1.8s-.18 1.8-.4 1.8c-.22 0-.4.975-.4 2.167 0 1.377-.182 2.227-.5 2.333-.736.245-.736 241.155 0 241.4.318.106.5.956.5 2.333 0 1.192.18 2.167.4 2.167.22 0 .4.81.4 1.8s.18 1.8.4 1.8c.22 0 .4.63.4 1.4 0 .77.18 1.4.4 1.4.22 0 .4.63.4 1.4 0 .77.18 1.4.4 1.4.22 0 .4.54.4 1.2 0 .66.18 1.2.4 1.2.22 0 .4.45.4 1s.18 1 .4 1c.22 0 .4.45.4 1s.18 1 .4 1c.22 0 .4.45.4 1s.18 1 .4 1c.22 0 .4.45.4 1s.18 1 .4 1c.22 0 .4.36.4.8 0 .44.18.8.4.8.22 0 .4.36.4.8 0 .44.18.8.4.8.22 0 .4.36.4.8 0 .44.199.8.443.8.243 0 .336.277.207.615-.132.344.014.712.331.833a.61.61 0 0 1 .351.785c-.12.312-.034.567.19.567.223 0 .819.855 1.324 1.9.504 1.045 1.24 2.249 1.636 2.675.395.427.718 1.012.718 1.3 0 .289.15.525.332.525.183 0 .587.495.898 1.1.31.605.881 1.391 1.267 1.747.387.356.703.848.703 1.094 0 .246.855 1.356 1.9 2.468 4.078 4.338 12.847 13.191 13.067 13.191.128 0 .974.72 1.881 1.6.907.88 1.857 1.6 2.112 1.6.255 0 .723.36 1.04.8.317.44.857.8 1.2.8.343 0 .883.36 1.2.8.317.44.857.8 1.2.8.343 0 .883.36 1.2.8.317.44.897.8 1.288.8.392 0 .712.162.712.361 0 .198.54.549 1.2.779.66.23 1.2.616 1.2.857s.315.385.7.321c.456-.077.681.122.646.571-.043.555.093.611.7.286.513-.274.754-.271.754.011 0 .228.36.414.8.414.44 0 .8.18.8.4 0 .22.36.4.8.4.44 0 .8.18.8.4 0 .22.36.4.8.4.44 0 .8.18.8.4 0 .22.45.4 1 .4s1 .18 1 .4c0 .22.45.4 1 .4s1 .18 1 .4c0 .22.45.4 1 .4.577 0 1 .23 1 .545 0 .365.329.481 1 .353.584-.112 1-.005 1 .255 0 .246.521.447 1.157.447.637 0 1.25.241 1.363.536.134.348.64.473 1.443.355.751-.11 1.237-.007 1.237.264 0 .254.698.445 1.624.445.98 0 1.525.158 1.376.4-.151.244.463.4 1.576.4 1.003 0 1.824.18 1.824.4 0 .22.975.4 2.167.4 1.377 0 2.227.182 2.333.5.245.736 241.155.736 241.4 0 .106-.318.956-.5 2.333-.5 1.192 0 2.167-.18 2.167-.4 0-.22.81-.4 1.8-.4s1.8-.18 1.8-.4c0-.22.63-.4 1.4-.4.77 0 1.4-.18 1.4-.4 0-.22.63-.4 1.4-.4.77 0 1.4-.18 1.4-.4 0-.22.54-.4 1.2-.4.66 0 1.2-.201 1.2-.447 0-.26.416-.367 1-.255.671.128 1 .012 1-.353 0-.315.423-.545 1-.545.55 0 1-.18 1-.4 0-.22.45-.4 1-.4s1-.18 1-.4c0-.22.45-.4 1-.4s1-.18 1-.4c0-.22.36-.4.8-.4.44 0 .8-.18.8-.4 0-.22.36-.4.8-.4.44 0 .8-.18.8-.4 0-.22.36-.4.8-.4.44 0 .8-.174.8-.387 0-.214.268-.285.597-.159.335.129.7-.041.833-.387.13-.339.468-.528.751-.419.284.109.631-.101.771-.467.14-.365.495-.572.789-.459.294.113.783-.138 1.085-.558.303-.42.871-.764 1.262-.764.392 0 .712-.18.712-.4 0-.22.27-.4.6-.4.33 0 .6-.18.6-.4 0-.22.23-.4.512-.4.281 0 .771-.36 1.088-.8.317-.44.857-.8 1.2-.8.343 0 .883-.36 1.2-.8.317-.44.785-.8 1.04-.8s1.205-.72 2.112-1.6c.907-.88 1.829-1.6 2.048-1.6.22 0 .4-.18.4-.4 0-.22.27-.4.6-.4.33 0 .6-.173.6-.385 0-.416 7.783-8.232 9.164-9.203.46-.324.836-.819.836-1.1 0-.281.72-1.253 1.6-2.16.88-.907 1.6-1.857 1.6-2.112 0-.255.36-.723.8-1.04.44-.317.8-.831.8-1.141 0-.311.316-.856.703-1.212.386-.356.957-1.142 1.267-1.747.311-.605.715-1.1.898-1.1.182 0 .332-.36.332-.8 0-.44.162-.8.361-.8.198 0 .549-.54.779-1.2.23-.66.627-1.2.882-1.2s.36-.27.233-.6c-.145-.378.005-.6.404-.6.437 0 .569-.248.425-.8-.115-.44-.046-.8.153-.8.2 0 .363-.36.363-.8 0-.44.18-.8.4-.8.22 0 .4-.36.4-.8 0-.44.18-.8.4-.8.22 0 .4-.36.4-.8 0-.44.18-.8.4-.8.22 0 .4-.45.4-1s.18-1 .4-1c.22 0 .4-.45.4-1s.18-1 .4-1c.22 0 .4-.45.4-1 0-.577.23-1 .545-1 .365 0 .481-.329.353-1-.112-.584-.005-1 .255-1 .246 0 .447-.54.447-1.2 0-.66.18-1.2.4-1.2.22 0 .4-.63.4-1.4 0-.77.18-1.4.4-1.4.22 0 .4-.619.4-1.376 0-.757.18-1.488.4-1.624.22-.136.4-.957.4-1.824 0-.867.18-1.576.4-1.576.22 0 .4-.975.4-2.167 0-1.377.182-2.227.5-2.333.399-.133.5-24.629.5-120.7s-.101-120.567-.5-120.7c-.318-.106-.5-.956-.5-2.333 0-1.192-.18-2.167-.4-2.167-.22 0-.4-.821-.4-1.824 0-1.113-.156-1.727-.4-1.576-.242.149-.4-.396-.4-1.376 0-.893-.18-1.624-.4-1.624-.22 0-.4-.63-.4-1.4 0-.77-.18-1.4-.4-1.4-.22 0-.4-.54-.4-1.2 0-.66-.201-1.2-.447-1.2-.26 0-.367-.416-.255-1 .128-.671.012-1-.353-1-.315 0-.545-.423-.545-1 0-.55-.18-1-.4-1-.22 0-.4-.45-.4-1s-.18-1-.4-1c-.22 0-.4-.45-.4-1s-.18-1-.4-1c-.22 0-.4-.36-.4-.8 0-.44-.18-.8-.4-.8-.22 0-.4-.36-.4-.8 0-.44-.164-.8-.365-.8-.201 0-.485-.715-.633-1.589-.149-.881-.476-1.549-.735-1.5-.257.049-.419-.206-.36-.565.059-.36-.177-.764-.525-.898-.348-.133-.538-.396-.421-.585.116-.188-.142-.722-.575-1.186-.432-.464-.786-1.081-.786-1.372 0-.291-.36-.788-.8-1.105-.44-.317-.8-.857-.8-1.2 0-.343-.36-.883-.8-1.2-.44-.317-.8-.857-.8-1.2 0-.343-.36-.883-.8-1.2-.44-.317-.8-.821-.8-1.12 0-.298-.72-1.234-1.6-2.08-.88-.846-1.6-1.649-1.6-1.786 0-.333-11.468-11.814-11.801-11.814-.144 0-.953-.72-1.799-1.6-.846-.88-1.782-1.6-2.08-1.6-.299 0-.803-.36-1.12-.8-.317-.44-.831-.8-1.141-.8-.311 0-.856-.316-1.212-.703-.356-.386-1.142-.957-1.747-1.267-.605-.311-1.1-.715-1.1-.898 0-.182-.283-.332-.629-.332-.345 0-.898-.27-1.228-.6-.33-.33-.947-.6-1.372-.6-.424 0-.771-.264-.771-.587 0-.357-.235-.498-.597-.359-.345.133-.704-.051-.851-.435-.14-.366-.502-.57-.804-.455-.301.116-.548.037-.548-.177 0-.213-.36-.387-.8-.387-.44 0-.8-.18-.8-.4 0-.22-.36-.4-.8-.4-.44 0-.8-.18-.8-.4 0-.22-.36-.4-.8-.4-.44 0-.8-.18-.8-.4 0-.22-.45-.4-1-.4s-1-.18-1-.4c0-.22-.45-.4-1-.4s-1-.18-1-.4c0-.22-.45-.4-1-.4s-1-.18-1-.4c0-.22-.45-.4-1-.4s-1-.18-1-.4c0-.22-.54-.4-1.2-.4-.66 0-1.2-.18-1.2-.4 0-.22-.63-.4-1.4-.4-.77 0-1.4-.18-1.4-.4 0-.22-.72-.4-1.6-.4-.88 0-1.6-.18-1.6-.4 0-.22-.72-.4-1.6-.4-.88 0-1.6-.18-1.6-.4 0-.22-.975-.4-2.167-.4-1.377 0-2.227-.182-2.333-.5C320.545.236 93.022-.154 82.5.292m233.133 15.679c1.192.204 3.427.582 4.967.841 31.77 5.332 57.861 32.219 63.095 65.02.747 4.687.739 231.685-.009 236.434-5.295 33.618-31.802 60.125-65.42 65.42-4.749.748-231.747.756-236.434.009-32.834-5.239-59.586-31.201-65.014-63.095l-.847-4.967c-.497-2.905-.497-228.361 0-231.266.204-1.192.582-3.427.841-4.967 1.26-7.511 5.657-19.398 9.171-24.8.573-.88 1.271-2.057 1.552-2.616.46-.916 1.981-3.039 5.118-7.145 1.425-1.865 10.321-10.761 12.186-12.186 4.106-3.137 6.229-4.658 7.145-5.118.559-.281 1.736-.979 2.616-1.552 5.333-3.47 17.283-7.909 24.6-9.138 1.43-.24 3.5-.597 4.6-.794 2.721-.485 229.008-.564 231.833-.08M189.4 67.64c-1.32.189-3.93.543-5.8.787-1.87.245-4.03.593-4.8.774-.77.181-2.39.533-3.6.781-29.843 6.123-53.285 24.499-61.005 47.818-5.54 16.735-3.917 38.775 3.905 53 4.55 8.276 9.1 13.356 19.154 21.391 4.991 3.988 19.65 11.902 28.546 15.411 1.76.694 3.74 1.497 4.4 1.783.66.287 1.83.74 2.6 1.008s1.76.631 2.2.807c.44.176 1.43.536 2.2.8.77.264 1.76.635 2.2.824.939.402 8.774 2.926 15.6 5.025 21.971 6.756 34.549 14.237 38.751 23.047 3.586 7.519 3.547 17.883-.096 25.504-1.399 2.926-8.065 10.4-9.276 10.4-.239 0-1.187.505-2.107 1.123-12.724 8.545-44.945 8.288-64.901-.518-.754-.333-2.046-.9-2.871-1.261-8.141-3.561-15.531-8.047-22.612-13.727-3.912-3.138-4.282-3.259-5.444-1.782-.448.57-2.306 2.682-4.129 4.695-6.017 6.641-7.313 8.068-7.515 8.27-.11.11-1.73 1.908-3.6 3.996s-3.76 4.171-4.2 4.629c-.44.458-1.97 2.158-3.4 3.777a508.409 508.409 0 0 1-3.898 4.371c-1.748 1.922-1.5 2.33 4.298 7.07.77.629 1.49 1.252 1.6 1.384.854 1.023 12.839 9.573 13.42 9.573.141 0 .734.333 1.318.74 1.022.713 6.397 3.697 8.462 4.698 1.046.507 2.673 1.23 7.482 3.322 6.602 2.871 19.491 6.558 28.018 8.013 6.023 1.028 7.309 1.217 10.9 1.602 15.408 1.651 30.524 1.531 44-.352 7.489-1.045 13.657-2.392 20.2-4.41 42.784-13.193 64.494-47.536 56.776-89.813-.524-2.869-2.26-9.403-2.976-11.2-4.677-11.742-12.124-21.833-21.2-28.727-1.21-.919-2.29-1.773-2.4-1.898-.329-.374-3.61-2.544-6.6-4.365-3.408-2.075-17.868-9.21-18.667-9.21-.315 0-.744-.152-.953-.339-.209-.186-1.91-.923-3.78-1.638-1.87-.714-3.76-1.454-4.2-1.642-1.014-.435-8.482-2.887-17-5.582-7.847-2.482-18.331-6.165-22.2-7.796l-4.8-2.024c-13.605-5.736-19.55-12.784-19.55-23.179 0-9.048 4.495-15.686 13.616-20.104 2.365-1.145 2.841-1.324 5.734-2.15 10.23-2.919 25.738-3.07 36.4-.354 7.509 1.913 9.549 2.545 14.2 4.399 6.741 2.687 14.845 7.358 21.4 12.335 3.008 2.284 2.359 2.61 8.127-4.083.399-.464 1.659-1.907 2.8-3.207l2.673-3.049c.33-.376 1.5-1.74 2.6-3.03 1.1-1.29 2.72-3.153 3.6-4.14l2.857-3.206c.691-.776 2.729-3.118 4.529-5.203l3.273-3.793-1.929-1.812a74.696 74.696 0 0 0-3.677-3.208c-.961-.767-1.951-1.582-2.2-1.809-4.668-4.272-19.055-12.522-27.453-15.744-1.87-.717-3.713-1.47-4.095-1.673-.382-.203-1.046-.369-1.476-.369-.43 0-.893-.18-1.029-.4-.136-.22-.599-.4-1.029-.4-.43 0-1.094-.171-1.476-.38-.798-.436-4.004-1.264-10.295-2.657-7.299-1.617-7.831-1.703-18.2-2.954-4.029-.486-27.952-.462-31.4.031" fill="#2e98ee"/><path d="M84.2 16.628c-35.406 4.273-63.396 32.43-67.582 67.985-.923 7.838-.923 222.936 0 230.774 1.105 9.387 3.241 16.631 7.434 25.213 8.283 16.954 23.155 30.782 40.748 37.889a26.6 26.6 0 0 1 1.695.758c.382.194 1.021.353 1.42.353s.896.149 1.105.33c.468.407 3.629 1.302 8.58 2.429 6.415 1.461 4.726 1.441 122.4 1.441 91.69 0 115.2-.103 117.6-.515 2.894-.498 4.225-.775 8.3-1.73 1.99-.467 6.063-1.743 7.6-2.381.495-.206 1.305-.535 1.8-.731 10.233-4.06 21.288-11.834 28.787-20.243 3.374-3.783 9.113-11.679 9.113-12.537 0-.218.137-.456.305-.53.284-.124 4.157-7.829 4.942-9.833.194-.495.521-1.305.727-1.8.633-1.525 1.913-5.606 2.353-7.5 1.077-4.644 1.276-5.595 1.758-8.4.412-2.4.515-25.947.515-117.8 0-123.8.121-115.623-1.829-123.8a55.503 55.503 0 0 1-.644-3.104c-.119-.717-.376-1.402-.571-1.523-.196-.121-.356-.649-.356-1.173s-.18-1.064-.4-1.2c-.22-.136-.4-.599-.4-1.029a3.88 3.88 0 0 0-.353-1.476 26.6 26.6 0 0 1-.758-1.695c-5.882-14.562-16.154-27.015-29.967-36.329-1.363-.919-2.653-1.671-2.867-1.671-.213 0-.448-.141-.522-.313-.123-.289-5.866-3.193-9.133-4.619-5.336-2.329-13.531-4.416-20.613-5.25-7.243-.853-224.115-.843-231.187.01m133.886 50.181c9.585.954 13.345 1.511 20.714 3.067 6.55 1.383 15.996 4.247 18.938 5.742.846.43 1.881.782 2.3.782.419 0 .762.18.762.4 0 .22.261.4.581.4 3.548 0 23.653 12.872 30.796 19.716 2.42 2.319 2.638 1.633-2.299 7.247a735.063 735.063 0 0 0-3.478 3.983c-.77.891-2.21 2.54-3.2 3.665a822.555 822.555 0 0 0-3.986 4.575c-1.203 1.391-2.376 2.729-2.606 2.972-.231.243-1.407 1.607-2.614 3.032-2.046 2.415-2.824 3.302-6.455 7.361-1.614 1.803-2.135 1.761-4.495-.368-.855-.772-2.07-1.708-2.7-2.08-.629-.371-1.144-.817-1.144-.989 0-.173-.19-.314-.422-.314-.232 0-1.511-.74-2.842-1.644-1.331-.904-3.346-2.136-4.478-2.738A228.128 228.128 0 0 1 248 119.74c-1.979-1.109-8.883-3.9-12.2-4.934-24.229-7.549-48.997-4.772-58.882 6.601-1.562 1.798-1.94 2.415-2.811 4.593-.22.55-.59 1.45-.822 2-1.21 2.869-1.273 10.031-.114 13 1.925 4.932 3.686 7.273 7.779 10.34 2.968 2.225 12.221 7.06 13.509 7.06.408 0 .741.18.741.4 0 .22.324.4.72.4.396 0 .891.143 1.1.318.209.175 1.1.547 1.98.827.88.279 2.05.7 2.6.935 1.104.471 1.909.768 4 1.472l6 2.022c2.53.853 7.84 2.572 11.8 3.821 3.96 1.248 7.56 2.423 8 2.611.44.188 1.97.728 3.4 1.201 1.43.473 3.363 1.205 4.296 1.626.932.422 1.86.767 2.062.767.201 0 1.148.386 2.104.857.956.471 2.098.992 2.538 1.158 3.085 1.162 13.772 6.438 15.462 7.634.584.413 1.178.751 1.321.751.309 0 5.928 3.617 6.217 4.002.11.146.491.431.846.632 4.518 2.559 14.911 13.386 17.886 18.632.416.734 1.28 2.234 1.92 3.334 1.161 1.997 2.738 5.198 3.399 6.9.192.495.517 1.305.723 1.8.205.495.59 1.62.855 2.5.265.88.618 1.96.785 2.4.166.44.516 1.88.777 3.2.261 1.32.626 3.12.812 4 1.308 6.188 1.568 23.728.436 29.4-.241 1.21-.629 3.1-.861 4.2a108.02 108.02 0 0 0-.644 3.304c-.122.717-.383 1.402-.578 1.523-.196.121-.356.624-.356 1.117s-.143 1.067-.318 1.276c-.175.209-.548 1.1-.828 1.98-.28.88-.879 2.41-1.332 3.4-.453.99-1.025 2.25-1.272 2.8-3.509 7.829-11.957 18.321-19.85 24.653-3.104 2.49-7.76 5.747-8.216 5.747-.143 0-.805.388-1.471.862-2.065 1.47-9.104 4.911-13.713 6.703-2.42.94-4.76 1.853-5.2 2.027-.44.174-1.61.535-2.6.801-.99.267-2.113.647-2.495.846-.382.199-1.136.361-1.676.361s-1.081.161-1.203.358c-.121.197-.897.455-1.723.574a57.04 57.04 0 0 0-3.503.663c-15.493 3.464-40.393 4.149-58.6 1.613-7.636-1.064-14.788-2.61-22.6-4.887-1.54-.449-3.16-.963-3.6-1.142-.44-.18-1.97-.721-3.4-1.202-3.89-1.311-10.965-4.322-14-5.958-.77-.415-2.21-1.175-3.2-1.687-.99-.513-1.89-1.022-2-1.132-.396-.396-2.615-1.654-3.3-1.871-.385-.122-.7-.381-.7-.576 0-.194-.19-.353-.422-.353-1.615 0-19.226-13.976-19.658-15.6-.127-.478 7.418-9.418 10.466-12.401.338-.33 1.961-2.13 3.607-4 1.646-1.869 3.266-3.669 3.6-3.999.334-.33 1.309-1.41 2.166-2.4.858-.99 2.392-2.7 3.41-3.8 1.018-1.1 2.819-3.125 4.001-4.5 2.323-2.701 2.678-2.864 3.935-1.8 1.823 1.542 2.472 2.064 4.933 3.968 6.672 5.164 15.293 10.074 23.562 13.421.55.222 1.313.563 1.695.758a3.88 3.88 0 0 0 1.476.353c.43 0 .893.18 1.029.4.136.22.599.4 1.029.4.43 0 1.094.162 1.476.361.382.199 1.505.571 2.495.827.99.256 2.353.634 3.028.839.676.205 1.7.373 2.277.373.576 0 1.145.157 1.264.35.119.192 1.255.472 2.524.622 1.269.15 3.567.444 5.107.654 9.284 1.264 22.425.877 29.8-.878 3.399-.808 3.774-.93 6.406-2.081.773-.339 1.853-.804 2.4-1.034 5.373-2.261 11.33-7.807 13.569-12.633 1.662-3.582 1.998-4.756 2.463-8.592 1.898-15.663-5.944-26.164-25.138-33.657-.495-.193-1.35-.531-1.9-.751-.55-.22-1.405-.556-1.9-.746-.495-.191-1.35-.525-1.9-.742-1.706-.673-4.82-1.72-9.4-3.16-10.98-3.453-20.934-6.786-23.4-7.834a73.234 73.234 0 0 0-1.9-.772l-1.8-.692c-3.476-1.339-5.512-2.265-13.3-6.055-3.74-1.82-7.748-3.915-8.908-4.654-1.159-.74-2.204-1.345-2.322-1.345-.275 0-4.853-3.077-6.199-4.167a81.627 81.627 0 0 0-2.383-1.833c-10.288-7.592-21.988-24.34-21.988-31.475 0-.483-.161-.977-.358-1.099-.197-.121-.457-.897-.579-1.723a88.406 88.406 0 0 0-.668-3.703c-1.487-7.341-1.178-27.661.446-29.38.197-.209.359-.963.359-1.676s.18-1.408.4-1.544c.22-.136.4-.689.4-1.229 0-.54.166-1.294.368-1.676.202-.382.775-1.775 1.273-3.095 2.239-5.939 7.051-13.751 11.357-18.437l2.076-2.263c5.073-5.532 14.692-12.411 22.526-16.109 1.65-.778 3.313-1.59 3.695-1.803.382-.214.967-.388 1.3-.388.333 0 .605-.18.605-.4 0-.22.362-.4.805-.4.443 0 1.118-.159 1.5-.353 5.887-2.995 19.923-6.22 33.095-7.604 4.654-.489 21.492-.511 26.286-.034" fill="#242434"/><path d="M82.5.287a8.899 8.899 0 0 0 2.2 0c.605-.092.11-.167-1.1-.167-1.21 0-1.705.075-1.1.167m232.8 0a8.899 8.899 0 0 0 2.2 0c.605-.092.11-.167-1.1-.167-1.21 0-1.705.075-1.1.167M76.4.8c0 .22.63.4 1.4.4.77 0 1.4-.18 1.4-.4 0-.22-.63-.4-1.4-.4-.77 0-1.4.18-1.4.4m244.4 0c0 .22.63.4 1.4.4.77 0 1.4-.18 1.4-.4 0-.22-.63-.4-1.4-.4-.77 0-1.4.18-1.4.4m-248.4.8c0 .22.54.4 1.2.4.66 0 1.2-.18 1.2-.4 0-.22-.54-.4-1.2-.4-.66 0-1.2.18-1.2.4m252.8 0c0 .22.54.4 1.2.4.66 0 1.2-.18 1.2-.4 0-.22-.54-.4-1.2-.4-.66 0-1.2.18-1.2.4m-256 .8c0 .22.54.4 1.2.4.66 0 1.2-.18 1.2-.4 0-.22-.54-.4-1.2-.4-.66 0-1.2.18-1.2.4m259.2 0c0 .22.54.4 1.2.4.66 0 1.2-.18 1.2-.4 0-.22-.54-.4-1.2-.4-.66 0-1.2.18-1.2.4m-261.6.8c0 .22.36.4.8.4.44 0 .8-.18.8-.4 0-.22-.36-.4-.8-.4-.44 0-.8.18-.8.4m264.8 0c0 .22.36.4.8.4.44 0 .8-.18.8-.4 0-.22-.36-.4-.8-.4-.44 0-.8.18-.8.4M64.2 4c-.136.22.123.4.576.4.453 0 .824-.18.824-.4 0-.22-.259-.4-.576-.4-.317 0-.688.18-.824.4m270.2 0c0 .22.36.4.8.4.44 0 .8-.18.8-.4 0-.22-.36-.4-.8-.4-.44 0-.8.18-.8.4m-272.8.8c0 .22.349.4.776.4.427 0 .888-.18 1.024-.4.14-.227-.196-.4-.776-.4-.563 0-1.024.18-1.024.4m275.2 0c0 .22.36.4.8.4.44 0 .8-.18.8-.4 0-.22-.36-.4-.8-.4-.44 0-.8.18-.8.4m-277.2.8c0 .22.36.4.8.4.44 0 .8-.18.8-.4 0-.22-.36-.4-.8-.4-.44 0-.8.18-.8.4m279.2 0c0 .22.371.4.824.4.453 0 .712-.18.576-.4-.136-.22-.507-.4-.824-.4-.317 0-.576.18-.576.4m-281.2.8c0 .22.36.4.8.4.44 0 .8-.18.8-.4 0-.22-.36-.4-.8-.4-.44 0-.8.18-.8.4m283.2 0c0 .22.36.4.8.4.44 0 .8-.18.8-.4 0-.22-.36-.4-.8-.4-.44 0-.8.18-.8.4M56 7.2c0 .22.27.4.6.4.33 0 .6-.18.6-.4 0-.22-.27-.4-.6-.4-.33 0-.6.18-.6.4m286.8 0c0 .22.27.4.6.4.33 0 .6-.18.6-.4 0-.22-.27-.4-.6-.4-.33 0-.6.18-.6.4M50.302 9.531c-1.263.588-2.298 1.294-2.3 1.569-.003.711.777.62 1.062-.123.132-.343.486-.528.788-.413.301.116.548.037.548-.177 0-.213.36-.387.8-.387.44 0 .8-.18.8-.4 0-.22.36-.4.8-.4.44 0 .8-.18.8-.4 0-.611-.785-.437-3.298.731M346.4 8.8c0 .22.36.4.8.4.44 0 .8.18.8.4 0 .22.36.4.8.4.44 0 .8.191.8.424 0 .233.192.305.427.16.234-.145.67.069.967.475.297.407.69.59.873.408.418-.418-.76-1.324-3-2.307-1.961-.86-2.467-.934-2.467-.36M44.307 12.923c-1.481.922-3.042 1.978-3.468 2.346a11.33 11.33 0 0 1-1.699 1.163c-1.233.66-2.093 1.549-1.79 1.851.135.135.582-.144.994-.619.413-.475 1.004-.864 1.315-.864.31 0 .824-.36 1.141-.8.317-.44.857-.8 1.2-.8.343 0 .883-.36 1.2-.8.317-.44.748-.8.957-.8.837 0 3.423-1.431 3.433-1.9.015-.743-.335-.613-3.283 1.223M352.4 11.8c0 .33.347.6.771.6.425 0 1.042.27 1.372.6.33.33.883.6 1.228.6.346 0 .629.15.629.332 0 .183.495.587 1.1.898.605.31 1.391.881 1.747 1.267.356.387.875.703 1.153.703s.843.389 1.256.864c.412.475.867.747 1.011.603.271-.272-1.352-1.867-1.9-1.867-.17 0-.548-.234-.838-.519-2.307-2.265-7.529-5.096-7.529-4.081M83.8 16.051c-1.1.197-3.17.554-4.6.794-7.317 1.229-19.267 5.668-24.6 9.138-.88.573-2.057 1.271-2.616 1.552-.916.46-3.039 1.981-7.145 5.118-1.865 1.425-10.761 10.321-12.186 12.186-3.137 4.106-4.658 6.229-5.118 7.145-.281.559-.979 1.736-1.552 2.616-3.514 5.402-7.911 17.289-9.171 24.8-.259 1.54-.637 3.775-.841 4.967-.497 2.905-.497 228.361 0 231.266l.847 4.967c5.428 31.894 32.18 57.856 65.014 63.095 4.687.747 231.685.739 236.434-.009 33.618-5.295 60.125-31.802 65.42-65.42.748-4.749.756-231.747.009-236.434-5.234-32.801-31.325-59.688-63.095-65.02-1.54-.259-3.775-.637-4.967-.841-2.825-.484-229.112-.405-231.833.08m231.587.567c7.082.834 15.277 2.921 20.613 5.25 3.267 1.426 9.01 4.33 9.133 4.619.074.172.309.313.522.313.214 0 1.504.752 2.867 1.671 13.813 9.314 24.085 21.767 29.967 36.329a26.6 26.6 0 0 0 .758 1.695 3.88 3.88 0 0 1 .353 1.476c0 .43.18.893.4 1.029.22.136.4.676.4 1.2 0 .524.16 1.052.356 1.173.195.121.452.806.571 1.523.118.717.408 2.114.644 3.104 1.95 8.177 1.829 0 1.829 123.8 0 91.853-.103 115.4-.515 117.8-.482 2.805-.681 3.756-1.758 8.4-.44 1.894-1.72 5.975-2.353 7.5-.206.495-.533 1.305-.727 1.8-.785 2.004-4.658 9.709-4.942 9.833-.168.074-.305.312-.305.53 0 .858-5.739 8.754-9.113 12.537-7.499 8.409-18.554 16.183-28.787 20.243-.495.196-1.305.525-1.8.731-3.433 1.425-9.697 3.045-15.9 4.111-2.4.412-25.91.515-117.6.515-117.674 0-115.985.02-122.4-1.441-4.951-1.127-8.112-2.022-8.58-2.429-.209-.181-.706-.33-1.105-.33s-1.038-.159-1.42-.353a26.6 26.6 0 0 0-1.695-.758c-17.593-7.107-32.465-20.935-40.748-37.889-4.193-8.582-6.329-15.826-7.434-25.213-.923-7.838-.923-222.936 0-230.774C20.804 49.058 48.794 20.901 84.2 16.628c7.072-.853 223.944-.863 231.187-.01m48.213 1.995c0 .409 2.855 3.065 3.067 2.854.117-.118-.429-.856-1.214-1.64-1.361-1.361-1.853-1.684-1.853-1.214M34.387 20.012c-.713.666-1.194 1.314-1.069 1.44.126.125.877-.42 1.669-1.212 1.742-1.742 1.23-1.937-.6-.228M31.2 22.8c0 .22-.196.4-.436.4-.665 0-8.446 7.953-8.277 8.46.081.244 2.03-1.428 4.33-3.715 4.797-4.769 5.474-5.545 4.832-5.545-.247 0-.449.18-.449.4m337.251.272c2.389 2.923 9.149 9.241 9.149 8.551 0-.609-8.63-9.223-9.239-9.223-.309 0-.28.219.09.672M19.718 34.68c-.706.8-1.168 1.64-1.027 1.867.157.254.33.19.448-.167.106-.319.703-1.057 1.327-1.64.624-.584 1.134-1.169 1.134-1.3 0-.567-.687-.114-1.882 1.24M378.4 33.413c0 .409 2.855 3.065 3.067 2.854.117-.118-.429-.856-1.214-1.64-1.361-1.361-1.853-1.684-1.853-1.214M17.26 37.842c-.729.824-.26 1.215.521.434.34-.34.619-.722.619-.847 0-.42-.594-.205-1.14.413m364.34-.413c0 .424 1.236 1.468 1.467 1.238.125-.126-.05-.507-.391-.848-.635-.635-1.076-.795-1.076-.39M15.991 39.891c-1.333 1.569-2.466 3.368-2.254 3.58.301.3 1.463-.887 1.463-1.496 0-.264.378-.809.84-1.209.461-.401.775-.921.696-1.157-.081-.244-.401-.124-.745.282m367.209-.255c0 .323.36.847.8 1.164.44.317.8.82.8 1.117 0 .652 1.147 1.87 1.463 1.554.229-.23-1.077-2.256-2.352-3.646-.54-.589-.711-.634-.711-.189M12.469 44.839c-.289.461-.431.933-.316 1.048.275.274 1.447-.907 1.447-1.458 0-.697-.569-.491-1.131.41m373.931-.444c0 .218.315.764.7 1.213.385.45.7 1.022.7 1.272 0 .249.225.528.5.62.275.092.5-.118.5-.467 0-.348-.136-.633-.302-.633-.167 0-.542-.54-.834-1.2-.509-1.151-1.264-1.631-1.264-.805M11.2 47c0 .367.194.602.43.523.237-.078.43-.314.43-.523 0-.209-.193-.444-.43-.523-.236-.079-.43.156-.43.523m-.942 1.9a108 108 0 0 1-.291 1.1c-.03.11-.395.678-.811 1.262-.416.584-.756 1.338-.756 1.676 0 .338-.18.726-.4.862-.22.136-.4.507-.4.824 0 .317.18.576.4.576.22 0 .4-.36.4-.8 0-.44.18-.8.4-.8.22 0 .4-.36.4-.8 0-.44.18-.8.4-.8.22 0 .4-.36.4-.8 0-.44.199-.8.443-.8.243 0 .345-.255.225-.567-.12-.312.053-.67.383-.797s.488-.412.351-.633c-.412-.667-.895-.457-1.144.497m378.359-.528c-.273.442.358.92.727.55.381-.38.31-.922-.12-.922-.207 0-.48.168-.607.372m1.2 2.128c.154.715.438 1.36.632 1.433.193.074.351.479.351.9 0 .422.18.767.4.767.22 0 .4.36.4.8 0 .44.18.8.4.8.494 0 .513-.589.048-1.505-.194-.382-.747-1.55-1.228-2.595-1.02-2.213-1.4-2.44-1.003-.6M6.8 56.6c0 .33.18.6.4.6.22 0 .4-.27.4-.6 0-.33-.18-.6-.4-.6-.22 0-.4.27-.4.6m385.6 0c0 .33.18.6.4.6.22 0 .4-.27.4-.6 0-.33-.18-.6-.4-.6-.22 0-.4.27-.4.6M6 58.4c0 .44.18.8.4.8.22 0 .4-.36.4-.8 0-.44-.18-.8-.4-.8-.22 0-.4.36-.4.8m387.2 0c0 .44.18.8.4.8.22 0 .4-.36.4-.8 0-.44-.18-.8-.4-.8-.22 0-.4.36-.4.8m-388 2c0 .44.18.8.4.8.22 0 .4-.36.4-.8 0-.44-.18-.8-.4-.8-.22 0-.4.36-.4.8m388.8 0c0 .44.18.8.4.8.22 0 .4-.36.4-.8 0-.44-.18-.8-.4-.8-.22 0-.4.36-.4.8m-389.6 2c0 .44.18.8.4.8.22 0 .4-.36.4-.8 0-.44-.18-.8-.4-.8-.22 0-.4.36-.4.8m390.4 0c0 .44.18.8.4.8.22 0 .4-.36.4-.8 0-.44-.18-.8-.4-.8-.22 0-.4.36-.4.8M3.867 63.867c-.415.415-.314 1.733.133 1.733.22 0 .4-.45.4-1 0-1.047-.092-1.174-.533-.733m391.733.709c0 .563.18 1.024.4 1.024.22 0 .4-.349.4-.776 0-.427-.18-.888-.4-1.024-.227-.14-.4.196-.4.776M3.067 66.667c-.415.415-.314 1.733.133 1.733.22 0 .4-.45.4-1 0-1.047-.092-1.174-.533-.733m188.733.176c-13.172 1.384-27.208 4.609-33.095 7.604-.382.194-1.057.353-1.5.353-.443 0-.805.18-.805.4 0 .22-.272.4-.605.4-.333 0-.918.174-1.3.388-.382.213-2.045 1.025-3.695 1.803-7.834 3.698-17.453 10.577-22.526 16.109l-2.076 2.263c-4.306 4.686-9.118 12.498-11.357 18.437-.498 1.32-1.071 2.713-1.273 3.095-.202.382-.368 1.136-.368 1.676s-.18 1.093-.4 1.229c-.22.136-.4.831-.4 1.544 0 .713-.162 1.467-.359 1.676-1.624 1.719-1.933 22.039-.446 29.38.245 1.21.546 2.876.668 3.703.122.826.382 1.602.579 1.723.197.122.358.616.358 1.099 0 7.135 11.7 23.883 21.988 31.475.745.55 1.818 1.375 2.383 1.833 1.346 1.09 5.924 4.167 6.199 4.167.118 0 1.163.605 2.322 1.345 1.16.739 5.168 2.834 8.908 4.654 7.788 3.79 9.824 4.716 13.3 6.055l1.8.692c.495.191 1.35.538 1.9.772 2.466 1.048 12.42 4.381 23.4 7.834 4.58 1.44 7.694 2.487 9.4 3.16.55.217 1.405.551 1.9.742.495.19 1.35.526 1.9.746.55.22 1.405.558 1.9.751 19.194 7.493 27.036 17.994 25.138 33.657-.465 3.836-.801 5.01-2.463 8.592-2.239 4.826-8.196 10.372-13.569 12.633-.547.23-1.627.695-2.4 1.034-2.632 1.151-3.007 1.273-6.406 2.081-7.375 1.755-20.516 2.142-29.8.878-1.54-.21-3.838-.504-5.107-.654-1.269-.15-2.405-.43-2.524-.622-.119-.193-.688-.35-1.264-.35-.577 0-1.601-.168-2.277-.373a93.592 93.592 0 0 0-3.028-.839c-.99-.256-2.113-.628-2.495-.827a3.798 3.798 0 0 0-1.476-.361c-.43 0-.893-.18-1.029-.4-.136-.22-.599-.4-1.029-.4a3.88 3.88 0 0 1-1.476-.353 26.05 26.05 0 0 0-1.695-.758c-8.269-3.347-16.89-8.257-23.562-13.421-2.461-1.904-3.11-2.426-4.933-3.968-1.257-1.064-1.612-.901-3.935 1.8a200.587 200.587 0 0 1-4.001 4.5c-1.018 1.1-2.552 2.81-3.41 3.8-.857.99-1.832 2.07-2.166 2.4-.334.33-1.954 2.13-3.6 3.999-1.646 1.87-3.269 3.67-3.607 4-3.048 2.983-10.593 11.923-10.466 12.401.432 1.624 18.043 15.6 19.658 15.6.232 0 .422.159.422.353 0 .195.315.454.7.576.685.217 2.904 1.475 3.3 1.871.11.11 1.01.619 2 1.132.99.512 2.43 1.272 3.2 1.687 3.035 1.636 10.11 4.647 14 5.958 1.43.481 2.96 1.022 3.4 1.202 1.865.76 9.833 2.923 14.6 3.963 12.204 2.663 20.722 3.458 37 3.453 15.236-.004 22.897-.696 33.2-3a57.04 57.04 0 0 1 3.503-.663c.826-.119 1.602-.377 1.723-.574.122-.197.663-.358 1.203-.358s1.294-.162 1.676-.361c.382-.199 1.505-.579 2.495-.846.99-.266 2.16-.627 2.6-.801.44-.174 2.78-1.087 5.2-2.027 4.609-1.792 11.648-5.233 13.713-6.703.666-.474 1.328-.862 1.471-.862.456 0 5.112-3.257 8.216-5.747 7.893-6.332 16.341-16.824 19.85-24.653.247-.55.819-1.81 1.272-2.8.453-.99 1.052-2.52 1.332-3.4.28-.88.653-1.771.828-1.98.175-.209.318-.783.318-1.276s.16-.996.356-1.117c.195-.121.456-.806.578-1.523.122-.717.412-2.204.644-3.304.232-1.1.62-2.99.861-4.2 1.132-5.672.872-23.212-.436-29.4-.186-.88-.551-2.68-.812-4-.261-1.32-.611-2.76-.777-3.2-.167-.44-.52-1.52-.785-2.4-.265-.88-.65-2.005-.855-2.5a96.548 96.548 0 0 1-.723-1.8c-.661-1.702-2.238-4.903-3.399-6.9-.64-1.1-1.504-2.6-1.92-3.334-2.975-5.246-13.368-16.073-17.886-18.632-.355-.201-.736-.486-.846-.632-.289-.385-5.908-4.002-6.217-4.002-.143 0-.737-.338-1.321-.751-1.69-1.196-12.377-6.472-15.462-7.634-.44-.166-1.582-.687-2.538-1.158-.956-.471-1.903-.857-2.104-.857-.202 0-1.13-.345-2.062-.767-.933-.421-2.866-1.153-4.296-1.626-1.43-.473-2.96-1.013-3.4-1.201-.44-.188-4.04-1.363-8-2.611-3.96-1.249-9.27-2.968-11.8-3.821l-6-2.022c-2.091-.704-2.896-1.001-4-1.472-.55-.235-1.72-.656-2.6-.935-.88-.28-1.771-.652-1.98-.827-.209-.175-.704-.318-1.1-.318-.396 0-.72-.18-.72-.4 0-.22-.333-.4-.741-.4-1.288 0-10.541-4.835-13.509-7.06-4.093-3.067-5.854-5.408-7.779-10.34-1.159-2.969-1.096-10.131.114-13 .232-.55.602-1.45.822-2 .871-2.178 1.249-2.795 2.811-4.593 9.885-11.373 34.653-14.15 58.882-6.601 3.317 1.034 10.221 3.825 12.2 4.934.77.431 2.326 1.276 3.458 1.878 1.132.602 3.147 1.834 4.478 2.738 1.331.904 2.61 1.644 2.842 1.644.232 0 .422.141.422.314 0 .172.515.618 1.144.989.63.372 1.845 1.308 2.7 2.08 2.36 2.129 2.881 2.171 4.495.368 3.631-4.059 4.409-4.946 6.455-7.361 1.207-1.425 2.383-2.789 2.614-3.032.23-.243 1.403-1.581 2.606-2.972a822.555 822.555 0 0 1 3.986-4.575 666.05 666.05 0 0 0 3.2-3.665c.77-.891 2.335-2.684 3.478-3.983 4.937-5.614 4.719-4.928 2.299-7.247-7.143-6.844-27.248-19.716-30.796-19.716-.32 0-.581-.18-.581-.4 0-.22-.343-.4-.762-.4s-1.454-.352-2.3-.782c-2.942-1.495-12.388-4.359-18.938-5.742-7.369-1.556-11.129-2.113-20.714-3.067-4.794-.477-21.632-.455-26.286.034m204.6.557c0 .55.18 1 .4 1 .22 0 .4-.45.4-1s-.18-1-.4-1c-.22 0-.4.45-.4 1m-175.6.209c10.369 1.251 10.901 1.337 18.2 2.954 6.291 1.393 9.497 2.221 10.295 2.657.382.209 1.046.38 1.476.38.43 0 .893.18 1.029.4.136.22.599.4 1.029.4.43 0 1.094.166 1.476.369.382.203 2.225.956 4.095 1.673 8.398 3.222 22.785 11.472 27.453 15.744.249.227 1.239 1.042 2.2 1.809a74.696 74.696 0 0 1 3.677 3.208l1.929 1.812-3.273 3.793a666.973 666.973 0 0 1-4.529 5.203L283 111.217c-.88.987-2.5 2.85-3.6 4.14a465.27 465.27 0 0 1-2.6 3.03l-2.673 3.049a637.313 637.313 0 0 0-2.8 3.207c-5.768 6.693-5.119 6.367-8.127 4.083-6.555-4.977-14.659-9.648-21.4-12.335-4.651-1.854-6.691-2.486-14.2-4.399-10.662-2.716-26.17-2.565-36.4.354-2.893.826-3.369 1.005-5.734 2.15-9.121 4.418-13.616 11.056-13.616 20.104 0 10.395 5.945 17.443 19.55 23.179l4.8 2.024c3.869 1.631 14.353 5.314 22.2 7.796 8.518 2.695 15.986 5.147 17 5.582.44.188 2.33.928 4.2 1.642 1.87.715 3.571 1.452 3.78 1.638.209.187.638.339.953.339.799 0 15.259 7.135 18.667 9.21 2.99 1.821 6.271 3.991 6.6 4.365.11.125 1.19.979 2.4 1.898 9.076 6.894 16.523 16.985 21.2 28.727 4.929 12.374 5.749 34.159 1.823 48.4-6.884 24.967-26.675 43.687-55.623 52.613-8.471 2.612-16.709 4.194-27.2 5.221-6.988.685-21.234.897-27.4.408-13.602-1.078-19.314-1.949-30.52-4.652-10.122-2.442-20.67-6.484-29.68-11.373-1.76-.955-3.678-2.069-4.262-2.477-.584-.407-1.177-.74-1.318-.74-.581 0-12.566-8.55-13.42-9.573-.11-.132-.83-.755-1.6-1.384-5.798-4.74-6.046-5.148-4.298-7.07.714-.784 2.468-2.751 3.898-4.371 1.43-1.619 2.96-3.319 3.4-3.777.44-.458 2.33-2.541 4.2-4.629 1.87-2.088 3.49-3.886 3.6-3.996.202-.202 1.498-1.629 7.515-8.27 1.823-2.013 3.681-4.125 4.129-4.695 1.162-1.477 1.532-1.356 5.444 1.782 7.081 5.68 14.471 10.166 22.612 13.727.825.361 2.117.928 2.871 1.261 19.956 8.806 52.177 9.063 64.901.518.92-.618 1.868-1.123 2.107-1.123 1.211 0 7.877-7.474 9.276-10.4 3.643-7.621 3.682-17.985.096-25.504-4.202-8.81-16.78-16.291-38.751-23.047-6.826-2.099-14.661-4.623-15.6-5.025-.44-.189-1.43-.56-2.2-.824-.77-.264-1.76-.624-2.2-.8-.44-.176-1.43-.539-2.2-.807-.77-.268-1.94-.721-2.6-1.008-.66-.286-2.64-1.089-4.4-1.783-8.896-3.509-23.555-11.423-28.546-15.411-6.505-5.199-8.332-6.905-12.856-12.009-14.576-16.447-17.849-47.499-7.314-69.382 9.634-20.013 31.473-35.351 58.116-40.818 1.21-.248 2.83-.6 3.6-.781.77-.181 2.93-.529 4.8-.774 1.87-.244 4.48-.598 5.8-.787 3.448-.493 27.371-.517 31.4-.031M2 70.2c0 .55.18 1 .4 1 .22 0 .4-.45.4-1s-.18-1-.4-1c-.22 0-.4.45-.4 1m395.2.224c0 .713.167 1.12.4.976.22-.136.4-.687.4-1.224 0-.537-.18-.976-.4-.976-.22 0-.4.551-.4 1.224M1.467 72.667c-.419.418-.312 2.133.133 2.133.22 0 .4-.54.4-1.2 0-1.243-.081-1.385-.533-.933M398 73.576c0 .673.18 1.224.4 1.224.22 0 .4-.439.4-.976 0-.537-.18-1.088-.4-1.224-.233-.144-.4.263-.4.976M.4 77.8c0 .77.18 1.4.4 1.4.22 0 .4-.63.4-1.4 0-.77-.18-1.4-.4-1.4-.22 0-.4.63-.4 1.4m398.4 0c0 .77.18 1.4.4 1.4.22 0 .4-.63.4-1.4 0-.77-.18-1.4-.4-1.4-.22 0-.4.63-.4 1.4m.928 5.8c0 1.43.073 2.015.161 1.3.089-.715.089-1.885 0-2.6-.088-.715-.161-.13-.161 1.3M.124 83.8c.002 1.32.077 1.812.166 1.093.089-.719.087-1.799-.004-2.4S.122 82.48.124 83.8m0 232.4c.002 1.32.077 1.812.166 1.093.089-.719.087-1.799-.004-2.4s-.164-.013-.162 1.307m399.607.4c.002 1.54.074 2.121.161 1.291.087-.83.085-2.09-.003-2.8-.089-.71-.16-.031-.158 1.509M.4 322.2c0 .77.18 1.4.4 1.4.22 0 .4-.63.4-1.4 0-.77-.18-1.4-.4-1.4-.22 0-.4.63-.4 1.4m398.4 0c0 .77.18 1.4.4 1.4.22 0 .4-.63.4-1.4 0-.77-.18-1.4-.4-1.4-.22 0-.4.63-.4 1.4M1.2 326.176c0 .537.18 1.088.4 1.224.233.144.4-.263.4-.976 0-.673-.18-1.224-.4-1.224-.22 0-.4.439-.4.976m396.8.224c0 .66.18 1.2.4 1.2.22 0 .4-.54.4-1.2 0-.66-.18-1.2-.4-1.2-.22 0-.4.54-.4 1.2m-.533 2.267c-.419.418-.312 2.133.133 2.133.22 0 .4-.54.4-1.2 0-1.243-.081-1.385-.533-.933M2 329.8c0 .55.18 1 .4 1 .22 0 .4-.45.4-1s-.18-1-.4-1c-.22 0-.4.45-.4 1m.8 2.576c0 .427.18.888.4 1.024.227.14.4-.196.4-.776 0-.563-.18-1.024-.4-1.024-.22 0-.4.349-.4.776m393.6.224c0 .55.18 1 .4 1 .22 0 .4-.45.4-1s-.18-1-.4-1c-.22 0-.4.45-.4 1M3.6 335.176c0 .427.18.888.4 1.024.227.14.4-.196.4-.776 0-.563-.18-1.024-.4-1.024-.22 0-.4.349-.4.776m392 .248c0 .58.173.916.4.776.22-.136.4-.597.4-1.024 0-.427-.18-.776-.4-.776-.22 0-.4.461-.4 1.024M4.4 337.6c0 .44.18.8.4.8.22 0 .4-.36.4-.8 0-.44-.18-.8-.4-.8-.22 0-.4.36-.4.8m390.4 0c0 .44.18.8.4.8.22 0 .4-.36.4-.8 0-.44-.18-.8-.4-.8-.22 0-.4.36-.4.8M5.2 339.376c0 .317.18.688.4.824.22.136.4-.123.4-.576 0-.453-.18-.824-.4-.824-.22 0-.4.259-.4.576m388.8.224c0 .44.18.8.4.8.22 0 .4-.36.4-.8 0-.44-.18-.8-.4-.8-.22 0-.4.36-.4.8m-388 2c0 .44.18.8.4.8.22 0 .4-.36.4-.8 0-.44-.18-.8-.4-.8-.22 0-.4.36-.4.8m387.2 0c0 .44.18.8.4.8.22 0 .4-.36.4-.8 0-.44-.18-.8-.4-.8-.22 0-.4.36-.4.8M6.8 343.4c0 .33.18.6.4.6.22 0 .4-.27.4-.6 0-.33-.18-.6-.4-.6-.22 0-.4.27-.4.6m385.6 0c0 .33.18.6.4.6.22 0 .4-.27.4-.6 0-.33-.18-.6-.4-.6-.22 0-.4.27-.4.6M7.6 345.32c0 .286.151.691.336.9.185.209.573 1.01.862 1.78.835 2.223 2.034 4.028 2.488 3.747.259-.161.177-.392-.218-.613-.349-.195-.533-.62-.409-.945.125-.324.027-.589-.216-.589-.244 0-.443-.36-.443-.8 0-.44-.18-.8-.4-.8-.22 0-.4-.36-.4-.8 0-.44-.18-.8-.4-.8-.22 0-.4-.36-.4-.8 0-.44-.18-.8-.4-.8-.22 0-.4.234-.4.52m384 .28c0 .44-.18.8-.4.8-.22 0-.4.36-.4.8 0 .44-.18.8-.4.8-.22 0-.4.345-.4.767 0 .421-.174.826-.387.9-.223.076-.244.364-.05.676.243.391.59-.003 1.235-1.4a118.56 118.56 0 0 1 1.25-2.638c.465-.916.446-1.505-.048-1.505-.22 0-.4.36-.4.8m-380.4 6.962c0 .494 1.805 3.438 2.108 3.438.197 0 .289-.135.204-.3a82.5 82.5 0 0 1-.838-1.8c-.555-1.215-1.474-2.05-1.474-1.338m376.34 1.038c-.23.66-.581 1.2-.779 1.2-.199 0-.361.27-.361.6 0 1.068.631.639 1.526-1.038 1.003-1.879 1.022-1.962.453-1.962-.231 0-.609.54-.839 1.2M13.6 356.638c0 .353 1.72 2.74 2.086 2.895.172.074.314.344.314.6.001.666 1.952 2.848 2.266 2.534.144-.144-.127-.599-.602-1.011-.475-.413-.864-.92-.864-1.127 0-.208-.315-.727-.7-1.154-.385-.426-.955-1.27-1.268-1.875-.507-.983-1.232-1.49-1.232-.862m371.57.862c-.31.605-.881 1.391-1.267 1.747-.387.356-.703.875-.703 1.153s-.389.843-.864 1.256c-.475.412-.747.867-.603 1.011.304.303 1.867-1.384 1.867-2.015 0-.235.405-.794.9-1.244.836-.758 1.9-2.328 1.9-2.803 0-.6-.738-.063-1.23.895m-5.299 7.351c-.841.893-1.43 1.723-1.308 1.845.247.247 3.037-2.668 3.037-3.174 0-.484-.078-.425-1.729 1.329M18.4 363.811c0 .36 3.646 3.876 3.83 3.693.095-.096-.62-1.013-1.589-2.039-1.635-1.73-2.241-2.178-2.241-1.654m4 4.599c0 .576 8.645 9.19 9.223 9.19.657 0 .124-.62-4.718-5.485-4.121-4.14-4.505-4.456-4.505-3.705m350.251 4.205c-3.79 3.757-4.779 4.985-4.015 4.985.261 0 7.664-7.383 8.523-8.5 1.532-1.99-.752-.21-4.508 3.515M33.2 378.613c0 .419 2.782 2.987 3.235 2.987.254 0-.28-.72-1.187-1.6-1.581-1.534-2.048-1.85-2.048-1.387m331.452 1.42c-.852.862-1.382 1.567-1.178 1.567.421 0 3.326-2.579 3.326-2.954 0-.54-.673-.106-2.148 1.387M37.2 381.853c0 .385 2.143 2.146 2.612 2.147.226 0 .671.36.988.8.317.44.734.8.927.8.192 0 .827.339 1.411.753 1.197.849 3.988 2.447 4.274 2.447.706 0-.031-.918-1.012-1.26-.66-.23-1.2-.581-1.2-.779 0-.199-.32-.361-.712-.361-.391 0-.971-.36-1.288-.8-.317-.44-.857-.8-1.2-.8-.343 0-.883-.36-1.2-.8-.317-.44-.857-.8-1.2-.8-.343 0-.883-.36-1.2-.8-.558-.774-1.2-1.066-1.2-.547m324.4.547c-.317.44-.857.8-1.2.8-.343 0-.883.36-1.2.8-.317.44-.807.8-1.088.8-.282 0-.512.18-.512.4 0 .22-.27.4-.6.4-.33 0-.6.18-.6.4 0 .22-.283.4-.629.4-.709 0-1.982 1.122-1.649 1.455.236.237 5.195-2.995 5.411-3.527.074-.181.344-.328.6-.328.51-.001 2.667-1.737 2.667-2.147 0-.519-.642-.227-1.2.547m-8.933 5.467c-.461.46-.292.933.333.933.33 0 .6-.27.6-.6 0-.625-.473-.794-.933-.333m-304.446.899c-.166.268-.238.522-.161.565 3.228 1.801 5.54 2.58 5.54 1.869 0-.22-.36-.4-.8-.4-.44 0-.8-.18-.8-.4 0-.22-.36-.4-.8-.4-.44 0-.8-.191-.8-.424 0-.233-.192-.305-.427-.16-.234.145-.657-.051-.939-.437-.378-.517-.591-.573-.813-.213m302.829.249c-.149.387-.507.572-.853.439-.329-.126-.597-.055-.597.159 0 .213-.36.387-.8.387-.44 0-.8.18-.8.4 0 .22-.36.4-.8.4-.44 0-.8.18-.8.4 0 .792 3.029-.241 5.573-1.9.096-.062-.015-.302-.247-.534-.293-.293-.497-.218-.676.249M56 392.8c0 .22.27.4.6.4.33 0 .6-.18.6-.4 0-.22-.27-.4-.6-.4-.33 0-.6.18-.6.4m286.8 0c0 .22.27.4.6.4.33 0 .6-.18.6-.4 0-.22-.27-.4-.6-.4-.33 0-.6.18-.6.4m-285.2.8c0 .22.36.4.8.4.44 0 .8-.18.8-.4 0-.22-.36-.4-.8-.4-.44 0-.8.18-.8.4m283.2 0c0 .22.36.4.8.4.44 0 .8-.18.8-.4 0-.22-.36-.4-.8-.4-.44 0-.8.18-.8.4m-281.2.8c0 .22.36.4.8.4.44 0 .8-.18.8-.4 0-.22-.36-.4-.8-.4-.44 0-.8.18-.8.4m279.2 0c0 .22.36.4.8.4.44 0 .8-.18.8-.4 0-.22-.36-.4-.8-.4-.44 0-.8.18-.8.4m-277.2.8c0 .22.36.4.8.4.44 0 .8-.18.8-.4 0-.22-.36-.4-.8-.4-.44 0-.8.18-.8.4m275.2 0c0 .22.36.4.8.4.44 0 .8-.18.8-.4 0-.22-.36-.4-.8-.4-.44 0-.8.18-.8.4M64 396c0 .22.36.4.8.4.44 0 .8-.18.8-.4 0-.22-.36-.4-.8-.4-.44 0-.8.18-.8.4m270.4 0c0 .22.36.4.8.4.44 0 .8-.18.8-.4 0-.22-.36-.4-.8-.4-.44 0-.8.18-.8.4m-267.6.8c0 .22.36.4.8.4.44 0 .8-.18.8-.4 0-.22-.36-.4-.8-.4-.44 0-.8.18-.8.4m264.8 0c0 .22.36.4.8.4.44 0 .8-.18.8-.4 0-.22-.36-.4-.8-.4-.44 0-.8.18-.8.4m-262.4.8c0 .22.439.4.976.4.537 0 1.088-.18 1.224-.4.144-.233-.263-.4-.976-.4-.673 0-1.224.18-1.224.4m259.6 0c0 .22.45.4 1 .4s1-.18 1-.4c0-.22-.45-.4-1-.4s-1 .18-1 .4m-256.4.8c0 .22.54.4 1.2.4.66 0 1.2-.18 1.2-.4 0-.22-.54-.4-1.2-.4-.66 0-1.2.18-1.2.4m252.8 0c0 .22.54.4 1.2.4.66 0 1.2-.18 1.2-.4 0-.22-.54-.4-1.2-.4-.66 0-1.2.18-1.2.4m-248.8.8c0 .22.63.4 1.4.4.77 0 1.4-.18 1.4-.4 0-.22-.63-.4-1.4-.4-.77 0-1.4.18-1.4.4m244.4 0c0 .22.63.4 1.4.4.77 0 1.4-.18 1.4-.4 0-.22-.63-.4-1.4-.4-.77 0-1.4.18-1.4.4m-238.3.687a8.899 8.899 0 0 0 2.2 0c.605-.092.11-.167-1.1-.167-1.21 0-1.705.075-1.1.167m232.8 0a8.899 8.899 0 0 0 2.2 0c.605-.092.11-.167-1.1-.167-1.21 0-1.705.075-1.1.167" fill="#27517e"/></g></svg>